<svg xmlns="http://www.w3.org/2000/svg" viewBox="0 0 48 48" width="32" height="32" aria-hidden="true">
  <rect x="4" y="4" width="40" height="40" rx="6" fill="#ffffff" opacity="0.12"/>
  <rect x="4" y="4" width="40" height="40" rx="6" fill="none" stroke="#ffffff" stroke-width="1.5" opacity="0.5"/>
  <circle cx="24" cy="27" r="12" fill="none" stroke="#ffffff" stroke-width="3"/>
  <circle cx="24" cy="27" r="7" fill="none" stroke="#ffffff" stroke-width="2" opacity="0.6"/>
  <circle cx="12" cy="10" r="1.6" fill="#ffffff"/>
  <circle cx="17" cy="10" r="1.6" fill="#ffffff"/>
  <path d="M33 33.5c-1 1-2.6 1-3.6 0l-3-3-2 2 3 3c1 1 1 2.6 0 3.6l-1.4 1.4 2 2 1.4-1.4c1.7-1.7 2-4.2 1-6.3l1.5-1.5.6.6c.5.5 1.3.5 1.8 0l2.7-2.7c.5-.5.5-1.3 0-1.8l-1.3-1.3c-.5-.5-1.3-.5-1.8 0l-2.7 2.7c-.5.5-.5 1.3 0 1.8l.6.6-1.5 1.5c-2.1-1-4.6-.7-6.3 1z" fill="#e67e22"/>
</svg>
